<svg width="21" height="21" viewBox="0 0 21 21" fill="none" xmlns="http://www.w3.org/2000/svg">
<path d="M15.4111 13.5765C16.682 11.8423 17.2512 9.69215 17.0049 7.55627C16.7585 5.42038 15.7148 3.45627 14.0825 2.05687C12.4502 0.657469 10.3498 -0.0740105 8.20131 0.00877302C6.05286 0.0915565 4.01489 0.982498 2.49513 2.50335C0.975362 4.0242 0.0858799 6.06281 0.00463373 8.21132C-0.0766124 10.3598 0.65637 12.4598 2.05694 14.0911C3.4575 15.7224 5.42237 16.7647 7.55843 17.0095C9.69449 17.2543 11.8442 16.6835 13.5775 15.4114H13.5762C13.6156 15.4639 13.6576 15.5138 13.7048 15.5623L18.758 20.6154C19.0041 20.8617 19.3379 21.0002 19.6861 21.0003C20.0343 21.0004 20.3682 20.8622 20.6145 20.6161C20.8608 20.37 20.9992 20.0361 20.9993 19.688C20.9994 19.3398 20.8613 19.0058 20.6152 18.7596L15.562 13.7064C15.5151 13.6589 15.4646 13.6151 15.4111 13.5752V13.5765ZM15.7497 8.53126C15.7497 9.47924 15.563 10.4179 15.2002 11.2938C14.8374 12.1696 14.3057 12.9654 13.6354 13.6357C12.9651 14.306 12.1693 14.8377 11.2935 15.2005C10.4176 15.5633 9.47894 15.75 8.53096 15.75C7.58298 15.75 6.64429 15.5633 5.76847 15.2005C4.89265 14.8377 4.09686 14.306 3.42654 13.6357C2.75621 12.9654 2.22448 12.1696 1.86171 11.2938C1.49893 10.4179 1.31221 9.47924 1.31221 8.53126C1.31221 6.61673 2.07276 4.78061 3.42654 3.42683C4.78031 2.07305 6.61643 1.31251 8.53096 1.31251C10.4455 1.31251 12.2816 2.07305 13.6354 3.42683C14.9892 4.78061 15.7497 6.61673 15.7497 8.53126Z" fill="white"/>
</svg>
